%
M48
M72
T01C0.1220
T02C0.1969
T03C0.2756
T04C0.2795
%
T01
X8706Y22607
X8689Y20120
T02
X18698Y27129
T03
X41695Y13880
X35191Y10130
X33692Y14378
X35192Y18379
X33691Y22628
X35191Y26878
X33690Y31129
X27692Y28131
X21692Y30629
X9697Y26630
X9694Y16126
X21689Y20129
X21689Y9629
X9694Y5129
X33693Y5128
X41688Y22129
X41689Y30631
T04
X41683Y5117
M30
