G75*
%MOIN*%
%OFA0B0*%
%FSLAX25Y25*%
%IPPOS*%
%LPD*%
%AMOC8*
5,1,8,0,0,1.08239X$1,22.5*
%
%ADD10C,0.00000*%
%ADD11C,0.12605*%
%ADD12C,0.00010*%
%ADD13C,0.00200*%
%ADD14C,0.24085*%
%ADD15C,0.31959*%
%ADD16C,0.32353*%
D10*
X0001000Y0001600D02*
X0506906Y0001600D01*
X0506906Y0361049D01*
X0001000Y0361049D01*
X0001000Y0001600D01*
X0080784Y0201195D02*
X0080786Y0201351D01*
X0080792Y0201507D01*
X0080802Y0201662D01*
X0080816Y0201817D01*
X0080834Y0201972D01*
X0080856Y0202126D01*
X0080881Y0202280D01*
X0080911Y0202433D01*
X0080945Y0202585D01*
X0080982Y0202737D01*
X0081023Y0202887D01*
X0081068Y0203036D01*
X0081117Y0203184D01*
X0081170Y0203331D01*
X0081226Y0203476D01*
X0081286Y0203620D01*
X0081350Y0203762D01*
X0081418Y0203903D01*
X0081489Y0204041D01*
X0081563Y0204178D01*
X0081641Y0204313D01*
X0081722Y0204446D01*
X0081807Y0204577D01*
X0081895Y0204706D01*
X0081986Y0204832D01*
X0082081Y0204956D01*
X0082178Y0205077D01*
X0082279Y0205196D01*
X0082383Y0205313D01*
X0082489Y0205426D01*
X0082599Y0205537D01*
X0082711Y0205645D01*
X0082826Y0205750D01*
X0082944Y0205853D01*
X0083064Y0205952D01*
X0083187Y0206048D01*
X0083312Y0206141D01*
X0083439Y0206230D01*
X0083569Y0206317D01*
X0083701Y0206400D01*
X0083835Y0206479D01*
X0083971Y0206556D01*
X0084109Y0206628D01*
X0084248Y0206698D01*
X0084390Y0206763D01*
X0084533Y0206825D01*
X0084677Y0206883D01*
X0084823Y0206938D01*
X0084971Y0206989D01*
X0085119Y0207036D01*
X0085269Y0207079D01*
X0085420Y0207118D01*
X0085572Y0207154D01*
X0085724Y0207185D01*
X0085878Y0207213D01*
X0086032Y0207237D01*
X0086186Y0207257D01*
X0086341Y0207273D01*
X0086497Y0207285D01*
X0086652Y0207293D01*
X0086808Y0207297D01*
X0086964Y0207297D01*
X0087120Y0207293D01*
X0087275Y0207285D01*
X0087431Y0207273D01*
X0087586Y0207257D01*
X0087740Y0207237D01*
X0087894Y0207213D01*
X0088048Y0207185D01*
X0088200Y0207154D01*
X0088352Y0207118D01*
X0088503Y0207079D01*
X0088653Y0207036D01*
X0088801Y0206989D01*
X0088949Y0206938D01*
X0089095Y0206883D01*
X0089239Y0206825D01*
X0089382Y0206763D01*
X0089524Y0206698D01*
X0089663Y0206628D01*
X0089801Y0206556D01*
X0089937Y0206479D01*
X0090071Y0206400D01*
X0090203Y0206317D01*
X0090333Y0206230D01*
X0090460Y0206141D01*
X0090585Y0206048D01*
X0090708Y0205952D01*
X0090828Y0205853D01*
X0090946Y0205750D01*
X0091061Y0205645D01*
X0091173Y0205537D01*
X0091283Y0205426D01*
X0091389Y0205313D01*
X0091493Y0205196D01*
X0091594Y0205077D01*
X0091691Y0204956D01*
X0091786Y0204832D01*
X0091877Y0204706D01*
X0091965Y0204577D01*
X0092050Y0204446D01*
X0092131Y0204313D01*
X0092209Y0204178D01*
X0092283Y0204041D01*
X0092354Y0203903D01*
X0092422Y0203762D01*
X0092486Y0203620D01*
X0092546Y0203476D01*
X0092602Y0203331D01*
X0092655Y0203184D01*
X0092704Y0203036D01*
X0092749Y0202887D01*
X0092790Y0202737D01*
X0092827Y0202585D01*
X0092861Y0202433D01*
X0092891Y0202280D01*
X0092916Y0202126D01*
X0092938Y0201972D01*
X0092956Y0201817D01*
X0092970Y0201662D01*
X0092980Y0201507D01*
X0092986Y0201351D01*
X0092988Y0201195D01*
X0092986Y0201039D01*
X0092980Y0200883D01*
X0092970Y0200728D01*
X0092956Y0200573D01*
X0092938Y0200418D01*
X0092916Y0200264D01*
X0092891Y0200110D01*
X0092861Y0199957D01*
X0092827Y0199805D01*
X0092790Y0199653D01*
X0092749Y0199503D01*
X0092704Y0199354D01*
X0092655Y0199206D01*
X0092602Y0199059D01*
X0092546Y0198914D01*
X0092486Y0198770D01*
X0092422Y0198628D01*
X0092354Y0198487D01*
X0092283Y0198349D01*
X0092209Y0198212D01*
X0092131Y0198077D01*
X0092050Y0197944D01*
X0091965Y0197813D01*
X0091877Y0197684D01*
X0091786Y0197558D01*
X0091691Y0197434D01*
X0091594Y0197313D01*
X0091493Y0197194D01*
X0091389Y0197077D01*
X0091283Y0196964D01*
X0091173Y0196853D01*
X0091061Y0196745D01*
X0090946Y0196640D01*
X0090828Y0196537D01*
X0090708Y0196438D01*
X0090585Y0196342D01*
X0090460Y0196249D01*
X0090333Y0196160D01*
X0090203Y0196073D01*
X0090071Y0195990D01*
X0089937Y0195911D01*
X0089801Y0195834D01*
X0089663Y0195762D01*
X0089524Y0195692D01*
X0089382Y0195627D01*
X0089239Y0195565D01*
X0089095Y0195507D01*
X0088949Y0195452D01*
X0088801Y0195401D01*
X0088653Y0195354D01*
X0088503Y0195311D01*
X0088352Y0195272D01*
X0088200Y0195236D01*
X0088048Y0195205D01*
X0087894Y0195177D01*
X0087740Y0195153D01*
X0087586Y0195133D01*
X0087431Y0195117D01*
X0087275Y0195105D01*
X0087120Y0195097D01*
X0086964Y0195093D01*
X0086808Y0195093D01*
X0086652Y0195097D01*
X0086497Y0195105D01*
X0086341Y0195117D01*
X0086186Y0195133D01*
X0086032Y0195153D01*
X0085878Y0195177D01*
X0085724Y0195205D01*
X0085572Y0195236D01*
X0085420Y0195272D01*
X0085269Y0195311D01*
X0085119Y0195354D01*
X0084971Y0195401D01*
X0084823Y0195452D01*
X0084677Y0195507D01*
X0084533Y0195565D01*
X0084390Y0195627D01*
X0084248Y0195692D01*
X0084109Y0195762D01*
X0083971Y0195834D01*
X0083835Y0195911D01*
X0083701Y0195990D01*
X0083569Y0196073D01*
X0083439Y0196160D01*
X0083312Y0196249D01*
X0083187Y0196342D01*
X0083064Y0196438D01*
X0082944Y0196537D01*
X0082826Y0196640D01*
X0082711Y0196745D01*
X0082599Y0196853D01*
X0082489Y0196964D01*
X0082383Y0197077D01*
X0082279Y0197194D01*
X0082178Y0197313D01*
X0082081Y0197434D01*
X0081986Y0197558D01*
X0081895Y0197684D01*
X0081807Y0197813D01*
X0081722Y0197944D01*
X0081641Y0198077D01*
X0081563Y0198212D01*
X0081489Y0198349D01*
X0081418Y0198487D01*
X0081350Y0198628D01*
X0081286Y0198770D01*
X0081226Y0198914D01*
X0081170Y0199059D01*
X0081117Y0199206D01*
X0081068Y0199354D01*
X0081023Y0199503D01*
X0080982Y0199653D01*
X0080945Y0199805D01*
X0080911Y0199957D01*
X0080881Y0200110D01*
X0080856Y0200264D01*
X0080834Y0200418D01*
X0080816Y0200573D01*
X0080802Y0200728D01*
X0080792Y0200883D01*
X0080786Y0201039D01*
X0080784Y0201195D01*
X0080954Y0226075D02*
X0080956Y0226231D01*
X0080962Y0226387D01*
X0080972Y0226542D01*
X0080986Y0226697D01*
X0081004Y0226852D01*
X0081026Y0227006D01*
X0081051Y0227160D01*
X0081081Y0227313D01*
X0081115Y0227465D01*
X0081152Y0227617D01*
X0081193Y0227767D01*
X0081238Y0227916D01*
X0081287Y0228064D01*
X0081340Y0228211D01*
X0081396Y0228356D01*
X0081456Y0228500D01*
X0081520Y0228642D01*
X0081588Y0228783D01*
X0081659Y0228921D01*
X0081733Y0229058D01*
X0081811Y0229193D01*
X0081892Y0229326D01*
X0081977Y0229457D01*
X0082065Y0229586D01*
X0082156Y0229712D01*
X0082251Y0229836D01*
X0082348Y0229957D01*
X0082449Y0230076D01*
X0082553Y0230193D01*
X0082659Y0230306D01*
X0082769Y0230417D01*
X0082881Y0230525D01*
X0082996Y0230630D01*
X0083114Y0230733D01*
X0083234Y0230832D01*
X0083357Y0230928D01*
X0083482Y0231021D01*
X0083609Y0231110D01*
X0083739Y0231197D01*
X0083871Y0231280D01*
X0084005Y0231359D01*
X0084141Y0231436D01*
X0084279Y0231508D01*
X0084418Y0231578D01*
X0084560Y0231643D01*
X0084703Y0231705D01*
X0084847Y0231763D01*
X0084993Y0231818D01*
X0085141Y0231869D01*
X0085289Y0231916D01*
X0085439Y0231959D01*
X0085590Y0231998D01*
X0085742Y0232034D01*
X0085894Y0232065D01*
X0086048Y0232093D01*
X0086202Y0232117D01*
X0086356Y0232137D01*
X0086511Y0232153D01*
X0086667Y0232165D01*
X0086822Y0232173D01*
X0086978Y0232177D01*
X0087134Y0232177D01*
X0087290Y0232173D01*
X0087445Y0232165D01*
X0087601Y0232153D01*
X0087756Y0232137D01*
X0087910Y0232117D01*
X0088064Y0232093D01*
X0088218Y0232065D01*
X0088370Y0232034D01*
X0088522Y0231998D01*
X0088673Y0231959D01*
X0088823Y0231916D01*
X0088971Y0231869D01*
X0089119Y0231818D01*
X0089265Y0231763D01*
X0089409Y0231705D01*
X0089552Y0231643D01*
X0089694Y0231578D01*
X0089833Y0231508D01*
X0089971Y0231436D01*
X0090107Y0231359D01*
X0090241Y0231280D01*
X0090373Y0231197D01*
X0090503Y0231110D01*
X0090630Y0231021D01*
X0090755Y0230928D01*
X0090878Y0230832D01*
X0090998Y0230733D01*
X0091116Y0230630D01*
X0091231Y0230525D01*
X0091343Y0230417D01*
X0091453Y0230306D01*
X0091559Y0230193D01*
X0091663Y0230076D01*
X0091764Y0229957D01*
X0091861Y0229836D01*
X0091956Y0229712D01*
X0092047Y0229586D01*
X0092135Y0229457D01*
X0092220Y0229326D01*
X0092301Y0229193D01*
X0092379Y0229058D01*
X0092453Y0228921D01*
X0092524Y0228783D01*
X0092592Y0228642D01*
X0092656Y0228500D01*
X0092716Y0228356D01*
X0092772Y0228211D01*
X0092825Y0228064D01*
X0092874Y0227916D01*
X0092919Y0227767D01*
X0092960Y0227617D01*
X0092997Y0227465D01*
X0093031Y0227313D01*
X0093061Y0227160D01*
X0093086Y0227006D01*
X0093108Y0226852D01*
X0093126Y0226697D01*
X0093140Y0226542D01*
X0093150Y0226387D01*
X0093156Y0226231D01*
X0093158Y0226075D01*
X0093156Y0225919D01*
X0093150Y0225763D01*
X0093140Y0225608D01*
X0093126Y0225453D01*
X0093108Y0225298D01*
X0093086Y0225144D01*
X0093061Y0224990D01*
X0093031Y0224837D01*
X0092997Y0224685D01*
X0092960Y0224533D01*
X0092919Y0224383D01*
X0092874Y0224234D01*
X0092825Y0224086D01*
X0092772Y0223939D01*
X0092716Y0223794D01*
X0092656Y0223650D01*
X0092592Y0223508D01*
X0092524Y0223367D01*
X0092453Y0223229D01*
X0092379Y0223092D01*
X0092301Y0222957D01*
X0092220Y0222824D01*
X0092135Y0222693D01*
X0092047Y0222564D01*
X0091956Y0222438D01*
X0091861Y0222314D01*
X0091764Y0222193D01*
X0091663Y0222074D01*
X0091559Y0221957D01*
X0091453Y0221844D01*
X0091343Y0221733D01*
X0091231Y0221625D01*
X0091116Y0221520D01*
X0090998Y0221417D01*
X0090878Y0221318D01*
X0090755Y0221222D01*
X0090630Y0221129D01*
X0090503Y0221040D01*
X0090373Y0220953D01*
X0090241Y0220870D01*
X0090107Y0220791D01*
X0089971Y0220714D01*
X0089833Y0220642D01*
X0089694Y0220572D01*
X0089552Y0220507D01*
X0089409Y0220445D01*
X0089265Y0220387D01*
X0089119Y0220332D01*
X0088971Y0220281D01*
X0088823Y0220234D01*
X0088673Y0220191D01*
X0088522Y0220152D01*
X0088370Y0220116D01*
X0088218Y0220085D01*
X0088064Y0220057D01*
X0087910Y0220033D01*
X0087756Y0220013D01*
X0087601Y0219997D01*
X0087445Y0219985D01*
X0087290Y0219977D01*
X0087134Y0219973D01*
X0086978Y0219973D01*
X0086822Y0219977D01*
X0086667Y0219985D01*
X0086511Y0219997D01*
X0086356Y0220013D01*
X0086202Y0220033D01*
X0086048Y0220057D01*
X0085894Y0220085D01*
X0085742Y0220116D01*
X0085590Y0220152D01*
X0085439Y0220191D01*
X0085289Y0220234D01*
X0085141Y0220281D01*
X0084993Y0220332D01*
X0084847Y0220387D01*
X0084703Y0220445D01*
X0084560Y0220507D01*
X0084418Y0220572D01*
X0084279Y0220642D01*
X0084141Y0220714D01*
X0084005Y0220791D01*
X0083871Y0220870D01*
X0083739Y0220953D01*
X0083609Y0221040D01*
X0083482Y0221129D01*
X0083357Y0221222D01*
X0083234Y0221318D01*
X0083114Y0221417D01*
X0082996Y0221520D01*
X0082881Y0221625D01*
X0082769Y0221733D01*
X0082659Y0221844D01*
X0082553Y0221957D01*
X0082449Y0222074D01*
X0082348Y0222193D01*
X0082251Y0222314D01*
X0082156Y0222438D01*
X0082065Y0222564D01*
X0081977Y0222693D01*
X0081892Y0222824D01*
X0081811Y0222957D01*
X0081733Y0223092D01*
X0081659Y0223229D01*
X0081588Y0223367D01*
X0081520Y0223508D01*
X0081456Y0223650D01*
X0081396Y0223794D01*
X0081340Y0223939D01*
X0081287Y0224086D01*
X0081238Y0224234D01*
X0081193Y0224383D01*
X0081152Y0224533D01*
X0081115Y0224685D01*
X0081081Y0224837D01*
X0081051Y0224990D01*
X0081026Y0225144D01*
X0081004Y0225298D01*
X0080986Y0225453D01*
X0080972Y0225608D01*
X0080962Y0225763D01*
X0080956Y0225919D01*
X0080954Y0226075D01*
D11*
X0087056Y0226075D03*
X0086886Y0201195D03*
D12*
X0019110Y0325891D02*
X0019110Y0335891D01*
X0019108Y0336049D01*
X0019102Y0336207D01*
X0019092Y0336365D01*
X0019078Y0336523D01*
X0019060Y0336680D01*
X0019039Y0336837D01*
X0019013Y0336993D01*
X0018983Y0337149D01*
X0018950Y0337304D01*
X0018912Y0337457D01*
X0018871Y0337610D01*
X0018826Y0337762D01*
X0018777Y0337913D01*
X0018724Y0338062D01*
X0018668Y0338210D01*
X0018608Y0338356D01*
X0018544Y0338501D01*
X0018476Y0338644D01*
X0018405Y0338786D01*
X0018331Y0338926D01*
X0018253Y0339063D01*
X0018171Y0339199D01*
X0018087Y0339333D01*
X0017998Y0339464D01*
X0017907Y0339593D01*
X0017812Y0339720D01*
X0017715Y0339845D01*
X0017614Y0339967D01*
X0017510Y0340086D01*
X0017403Y0340203D01*
X0017293Y0340317D01*
X0017180Y0340428D01*
X0017065Y0340537D01*
X0016947Y0340642D01*
X0016826Y0340744D01*
X0016703Y0340844D01*
X0016577Y0340940D01*
X0016449Y0341033D01*
X0016319Y0341123D01*
X0016186Y0341209D01*
X0016051Y0341293D01*
X0015915Y0341372D01*
X0015776Y0341449D01*
X0015635Y0341521D01*
X0015493Y0341591D01*
X0015349Y0341656D01*
X0015203Y0341718D01*
X0015056Y0341776D01*
X0014907Y0341831D01*
X0014757Y0341882D01*
X0014606Y0341929D01*
X0014454Y0341972D01*
X0014301Y0342011D01*
X0014146Y0342047D01*
X0013991Y0342078D01*
X0013835Y0342106D01*
X0013679Y0342130D01*
X0013522Y0342150D01*
X0013364Y0342166D01*
X0013207Y0342178D01*
X0013048Y0342186D01*
X0012890Y0342190D01*
X0012732Y0342190D01*
X0012574Y0342186D01*
X0012415Y0342178D01*
X0012258Y0342166D01*
X0012100Y0342150D01*
X0011943Y0342130D01*
X0011787Y0342106D01*
X0011631Y0342078D01*
X0011476Y0342047D01*
X0011321Y0342011D01*
X0011168Y0341972D01*
X0011016Y0341929D01*
X0010865Y0341882D01*
X0010715Y0341831D01*
X0010566Y0341776D01*
X0010419Y0341718D01*
X0010273Y0341656D01*
X0010129Y0341591D01*
X0009987Y0341521D01*
X0009846Y0341449D01*
X0009707Y0341372D01*
X0009571Y0341293D01*
X0009436Y0341209D01*
X0009303Y0341123D01*
X0009173Y0341033D01*
X0009045Y0340940D01*
X0008919Y0340844D01*
X0008796Y0340744D01*
X0008675Y0340642D01*
X0008557Y0340537D01*
X0008442Y0340428D01*
X0008329Y0340317D01*
X0008219Y0340203D01*
X0008112Y0340086D01*
X0008008Y0339967D01*
X0007907Y0339845D01*
X0007810Y0339720D01*
X0007715Y0339593D01*
X0007624Y0339464D01*
X0007535Y0339333D01*
X0007451Y0339199D01*
X0007369Y0339063D01*
X0007291Y0338926D01*
X0007217Y0338786D01*
X0007146Y0338644D01*
X0007078Y0338501D01*
X0007014Y0338356D01*
X0006954Y0338210D01*
X0006898Y0338062D01*
X0006845Y0337913D01*
X0006796Y0337762D01*
X0006751Y0337610D01*
X0006710Y0337457D01*
X0006672Y0337304D01*
X0006639Y0337149D01*
X0006609Y0336993D01*
X0006583Y0336837D01*
X0006562Y0336680D01*
X0006544Y0336523D01*
X0006530Y0336365D01*
X0006520Y0336207D01*
X0006514Y0336049D01*
X0006512Y0335891D01*
X0006512Y0325891D01*
X0006514Y0325733D01*
X0006520Y0325575D01*
X0006530Y0325417D01*
X0006544Y0325259D01*
X0006562Y0325102D01*
X0006583Y0324945D01*
X0006609Y0324789D01*
X0006639Y0324633D01*
X0006672Y0324478D01*
X0006710Y0324325D01*
X0006751Y0324172D01*
X0006796Y0324020D01*
X0006845Y0323869D01*
X0006898Y0323720D01*
X0006954Y0323572D01*
X0007014Y0323426D01*
X0007078Y0323281D01*
X0007146Y0323138D01*
X0007217Y0322996D01*
X0007291Y0322856D01*
X0007369Y0322719D01*
X0007451Y0322583D01*
X0007535Y0322449D01*
X0007624Y0322318D01*
X0007715Y0322189D01*
X0007810Y0322062D01*
X0007907Y0321937D01*
X0008008Y0321815D01*
X0008112Y0321696D01*
X0008219Y0321579D01*
X0008329Y0321465D01*
X0008442Y0321354D01*
X0008557Y0321245D01*
X0008675Y0321140D01*
X0008796Y0321038D01*
X0008919Y0320938D01*
X0009045Y0320842D01*
X0009173Y0320749D01*
X0009303Y0320659D01*
X0009436Y0320573D01*
X0009571Y0320489D01*
X0009707Y0320410D01*
X0009846Y0320333D01*
X0009987Y0320261D01*
X0010129Y0320191D01*
X0010273Y0320126D01*
X0010419Y0320064D01*
X0010566Y0320006D01*
X0010715Y0319951D01*
X0010865Y0319900D01*
X0011016Y0319853D01*
X0011168Y0319810D01*
X0011321Y0319771D01*
X0011476Y0319735D01*
X0011631Y0319704D01*
X0011787Y0319676D01*
X0011943Y0319652D01*
X0012100Y0319632D01*
X0012258Y0319616D01*
X0012415Y0319604D01*
X0012574Y0319596D01*
X0012732Y0319592D01*
X0012890Y0319592D01*
X0013048Y0319596D01*
X0013207Y0319604D01*
X0013364Y0319616D01*
X0013522Y0319632D01*
X0013679Y0319652D01*
X0013835Y0319676D01*
X0013991Y0319704D01*
X0014146Y0319735D01*
X0014301Y0319771D01*
X0014454Y0319810D01*
X0014606Y0319853D01*
X0014757Y0319900D01*
X0014907Y0319951D01*
X0015056Y0320006D01*
X0015203Y0320064D01*
X0015349Y0320126D01*
X0015493Y0320191D01*
X0015635Y0320261D01*
X0015776Y0320333D01*
X0015915Y0320410D01*
X0016051Y0320489D01*
X0016186Y0320573D01*
X0016319Y0320659D01*
X0016449Y0320749D01*
X0016577Y0320842D01*
X0016703Y0320938D01*
X0016826Y0321038D01*
X0016947Y0321140D01*
X0017065Y0321245D01*
X0017180Y0321354D01*
X0017293Y0321465D01*
X0017403Y0321579D01*
X0017510Y0321696D01*
X0017614Y0321815D01*
X0017715Y0321937D01*
X0017812Y0322062D01*
X0017907Y0322189D01*
X0017998Y0322318D01*
X0018087Y0322449D01*
X0018171Y0322583D01*
X0018253Y0322719D01*
X0018331Y0322856D01*
X0018405Y0322996D01*
X0018476Y0323138D01*
X0018544Y0323281D01*
X0018608Y0323426D01*
X0018668Y0323572D01*
X0018724Y0323720D01*
X0018777Y0323869D01*
X0018826Y0324020D01*
X0018871Y0324172D01*
X0018912Y0324325D01*
X0018950Y0324478D01*
X0018983Y0324633D01*
X0019013Y0324789D01*
X0019039Y0324945D01*
X0019060Y0325102D01*
X0019078Y0325259D01*
X0019092Y0325417D01*
X0019102Y0325575D01*
X0019108Y0325733D01*
X0019110Y0325891D01*
X0019110Y0036128D02*
X0019110Y0026128D01*
X0019108Y0025970D01*
X0019102Y0025812D01*
X0019092Y0025654D01*
X0019078Y0025496D01*
X0019060Y0025339D01*
X0019039Y0025182D01*
X0019013Y0025026D01*
X0018983Y0024870D01*
X0018950Y0024715D01*
X0018912Y0024562D01*
X0018871Y0024409D01*
X0018826Y0024257D01*
X0018777Y0024106D01*
X0018724Y0023957D01*
X0018668Y0023809D01*
X0018608Y0023663D01*
X0018544Y0023518D01*
X0018476Y0023375D01*
X0018405Y0023233D01*
X0018331Y0023093D01*
X0018253Y0022956D01*
X0018171Y0022820D01*
X0018087Y0022686D01*
X0017998Y0022555D01*
X0017907Y0022426D01*
X0017812Y0022299D01*
X0017715Y0022174D01*
X0017614Y0022052D01*
X0017510Y0021933D01*
X0017403Y0021816D01*
X0017293Y0021702D01*
X0017180Y0021591D01*
X0017065Y0021482D01*
X0016947Y0021377D01*
X0016826Y0021275D01*
X0016703Y0021175D01*
X0016577Y0021079D01*
X0016449Y0020986D01*
X0016319Y0020896D01*
X0016186Y0020810D01*
X0016051Y0020726D01*
X0015915Y0020647D01*
X0015776Y0020570D01*
X0015635Y0020498D01*
X0015493Y0020428D01*
X0015349Y0020363D01*
X0015203Y0020301D01*
X0015056Y0020243D01*
X0014907Y0020188D01*
X0014757Y0020137D01*
X0014606Y0020090D01*
X0014454Y0020047D01*
X0014301Y0020008D01*
X0014146Y0019972D01*
X0013991Y0019941D01*
X0013835Y0019913D01*
X0013679Y0019889D01*
X0013522Y0019869D01*
X0013364Y0019853D01*
X0013207Y0019841D01*
X0013048Y0019833D01*
X0012890Y0019829D01*
X0012732Y0019829D01*
X0012574Y0019833D01*
X0012415Y0019841D01*
X0012258Y0019853D01*
X0012100Y0019869D01*
X0011943Y0019889D01*
X0011787Y0019913D01*
X0011631Y0019941D01*
X0011476Y0019972D01*
X0011321Y0020008D01*
X0011168Y0020047D01*
X0011016Y0020090D01*
X0010865Y0020137D01*
X0010715Y0020188D01*
X0010566Y0020243D01*
X0010419Y0020301D01*
X0010273Y0020363D01*
X0010129Y0020428D01*
X0009987Y0020498D01*
X0009846Y0020570D01*
X0009707Y0020647D01*
X0009571Y0020726D01*
X0009436Y0020810D01*
X0009303Y0020896D01*
X0009173Y0020986D01*
X0009045Y0021079D01*
X0008919Y0021175D01*
X0008796Y0021275D01*
X0008675Y0021377D01*
X0008557Y0021482D01*
X0008442Y0021591D01*
X0008329Y0021702D01*
X0008219Y0021816D01*
X0008112Y0021933D01*
X0008008Y0022052D01*
X0007907Y0022174D01*
X0007810Y0022299D01*
X0007715Y0022426D01*
X0007624Y0022555D01*
X0007535Y0022686D01*
X0007451Y0022820D01*
X0007369Y0022956D01*
X0007291Y0023093D01*
X0007217Y0023233D01*
X0007146Y0023375D01*
X0007078Y0023518D01*
X0007014Y0023663D01*
X0006954Y0023809D01*
X0006898Y0023957D01*
X0006845Y0024106D01*
X0006796Y0024257D01*
X0006751Y0024409D01*
X0006710Y0024562D01*
X0006672Y0024715D01*
X0006639Y0024870D01*
X0006609Y0025026D01*
X0006583Y0025182D01*
X0006562Y0025339D01*
X0006544Y0025496D01*
X0006530Y0025654D01*
X0006520Y0025812D01*
X0006514Y0025970D01*
X0006512Y0026128D01*
X0006512Y0036128D01*
X0006514Y0036286D01*
X0006520Y0036444D01*
X0006530Y0036602D01*
X0006544Y0036760D01*
X0006562Y0036917D01*
X0006583Y0037074D01*
X0006609Y0037230D01*
X0006639Y0037386D01*
X0006672Y0037541D01*
X0006710Y0037694D01*
X0006751Y0037847D01*
X0006796Y0037999D01*
X0006845Y0038150D01*
X0006898Y0038299D01*
X0006954Y0038447D01*
X0007014Y0038593D01*
X0007078Y0038738D01*
X0007146Y0038881D01*
X0007217Y0039023D01*
X0007291Y0039163D01*
X0007369Y0039300D01*
X0007451Y0039436D01*
X0007535Y0039570D01*
X0007624Y0039701D01*
X0007715Y0039830D01*
X0007810Y0039957D01*
X0007907Y0040082D01*
X0008008Y0040204D01*
X0008112Y0040323D01*
X0008219Y0040440D01*
X0008329Y0040554D01*
X0008442Y0040665D01*
X0008557Y0040774D01*
X0008675Y0040879D01*
X0008796Y0040981D01*
X0008919Y0041081D01*
X0009045Y0041177D01*
X0009173Y0041270D01*
X0009303Y0041360D01*
X0009436Y0041446D01*
X0009571Y0041530D01*
X0009707Y0041609D01*
X0009846Y0041686D01*
X0009987Y0041758D01*
X0010129Y0041828D01*
X0010273Y0041893D01*
X0010419Y0041955D01*
X0010566Y0042013D01*
X0010715Y0042068D01*
X0010865Y0042119D01*
X0011016Y0042166D01*
X0011168Y0042209D01*
X0011321Y0042248D01*
X0011476Y0042284D01*
X0011631Y0042315D01*
X0011787Y0042343D01*
X0011943Y0042367D01*
X0012100Y0042387D01*
X0012258Y0042403D01*
X0012415Y0042415D01*
X0012574Y0042423D01*
X0012732Y0042427D01*
X0012890Y0042427D01*
X0013048Y0042423D01*
X0013207Y0042415D01*
X0013364Y0042403D01*
X0013522Y0042387D01*
X0013679Y0042367D01*
X0013835Y0042343D01*
X0013991Y0042315D01*
X0014146Y0042284D01*
X0014301Y0042248D01*
X0014454Y0042209D01*
X0014606Y0042166D01*
X0014757Y0042119D01*
X0014907Y0042068D01*
X0015056Y0042013D01*
X0015203Y0041955D01*
X0015349Y0041893D01*
X0015493Y0041828D01*
X0015635Y0041758D01*
X0015776Y0041686D01*
X0015915Y0041609D01*
X0016051Y0041530D01*
X0016186Y0041446D01*
X0016319Y0041360D01*
X0016449Y0041270D01*
X0016577Y0041177D01*
X0016703Y0041081D01*
X0016826Y0040981D01*
X0016947Y0040879D01*
X0017065Y0040774D01*
X0017180Y0040665D01*
X0017293Y0040554D01*
X0017403Y0040440D01*
X0017510Y0040323D01*
X0017614Y0040204D01*
X0017715Y0040082D01*
X0017812Y0039957D01*
X0017907Y0039830D01*
X0017998Y0039701D01*
X0018087Y0039570D01*
X0018171Y0039436D01*
X0018253Y0039300D01*
X0018331Y0039163D01*
X0018405Y0039023D01*
X0018476Y0038881D01*
X0018544Y0038738D01*
X0018608Y0038593D01*
X0018668Y0038447D01*
X0018724Y0038299D01*
X0018777Y0038150D01*
X0018826Y0037999D01*
X0018871Y0037847D01*
X0018912Y0037694D01*
X0018950Y0037541D01*
X0018983Y0037386D01*
X0019013Y0037230D01*
X0019039Y0037074D01*
X0019060Y0036917D01*
X0019078Y0036760D01*
X0019092Y0036602D01*
X0019102Y0036444D01*
X0019108Y0036286D01*
X0019110Y0036128D01*
X0488795Y0036128D02*
X0488795Y0026128D01*
X0488797Y0025970D01*
X0488803Y0025812D01*
X0488813Y0025654D01*
X0488827Y0025496D01*
X0488845Y0025339D01*
X0488866Y0025182D01*
X0488892Y0025026D01*
X0488922Y0024870D01*
X0488955Y0024715D01*
X0488993Y0024562D01*
X0489034Y0024409D01*
X0489079Y0024257D01*
X0489128Y0024106D01*
X0489181Y0023957D01*
X0489237Y0023809D01*
X0489297Y0023663D01*
X0489361Y0023518D01*
X0489429Y0023375D01*
X0489500Y0023233D01*
X0489574Y0023093D01*
X0489652Y0022956D01*
X0489734Y0022820D01*
X0489818Y0022686D01*
X0489907Y0022555D01*
X0489998Y0022426D01*
X0490093Y0022299D01*
X0490190Y0022174D01*
X0490291Y0022052D01*
X0490395Y0021933D01*
X0490502Y0021816D01*
X0490612Y0021702D01*
X0490725Y0021591D01*
X0490840Y0021482D01*
X0490958Y0021377D01*
X0491079Y0021275D01*
X0491202Y0021175D01*
X0491328Y0021079D01*
X0491456Y0020986D01*
X0491586Y0020896D01*
X0491719Y0020810D01*
X0491854Y0020726D01*
X0491990Y0020647D01*
X0492129Y0020570D01*
X0492270Y0020498D01*
X0492412Y0020428D01*
X0492556Y0020363D01*
X0492702Y0020301D01*
X0492849Y0020243D01*
X0492998Y0020188D01*
X0493148Y0020137D01*
X0493299Y0020090D01*
X0493451Y0020047D01*
X0493604Y0020008D01*
X0493759Y0019972D01*
X0493914Y0019941D01*
X0494070Y0019913D01*
X0494226Y0019889D01*
X0494383Y0019869D01*
X0494541Y0019853D01*
X0494698Y0019841D01*
X0494857Y0019833D01*
X0495015Y0019829D01*
X0495173Y0019829D01*
X0495331Y0019833D01*
X0495490Y0019841D01*
X0495647Y0019853D01*
X0495805Y0019869D01*
X0495962Y0019889D01*
X0496118Y0019913D01*
X0496274Y0019941D01*
X0496429Y0019972D01*
X0496584Y0020008D01*
X0496737Y0020047D01*
X0496889Y0020090D01*
X0497040Y0020137D01*
X0497190Y0020188D01*
X0497339Y0020243D01*
X0497486Y0020301D01*
X0497632Y0020363D01*
X0497776Y0020428D01*
X0497918Y0020498D01*
X0498059Y0020570D01*
X0498198Y0020647D01*
X0498334Y0020726D01*
X0498469Y0020810D01*
X0498602Y0020896D01*
X0498732Y0020986D01*
X0498860Y0021079D01*
X0498986Y0021175D01*
X0499109Y0021275D01*
X0499230Y0021377D01*
X0499348Y0021482D01*
X0499463Y0021591D01*
X0499576Y0021702D01*
X0499686Y0021816D01*
X0499793Y0021933D01*
X0499897Y0022052D01*
X0499998Y0022174D01*
X0500095Y0022299D01*
X0500190Y0022426D01*
X0500281Y0022555D01*
X0500370Y0022686D01*
X0500454Y0022820D01*
X0500536Y0022956D01*
X0500614Y0023093D01*
X0500688Y0023233D01*
X0500759Y0023375D01*
X0500827Y0023518D01*
X0500891Y0023663D01*
X0500951Y0023809D01*
X0501007Y0023957D01*
X0501060Y0024106D01*
X0501109Y0024257D01*
X0501154Y0024409D01*
X0501195Y0024562D01*
X0501233Y0024715D01*
X0501266Y0024870D01*
X0501296Y0025026D01*
X0501322Y0025182D01*
X0501343Y0025339D01*
X0501361Y0025496D01*
X0501375Y0025654D01*
X0501385Y0025812D01*
X0501391Y0025970D01*
X0501393Y0026128D01*
X0501394Y0026128D02*
X0501394Y0036128D01*
X0501393Y0036128D02*
X0501391Y0036286D01*
X0501385Y0036444D01*
X0501375Y0036602D01*
X0501361Y0036760D01*
X0501343Y0036917D01*
X0501322Y0037074D01*
X0501296Y0037230D01*
X0501266Y0037386D01*
X0501233Y0037541D01*
X0501195Y0037694D01*
X0501154Y0037847D01*
X0501109Y0037999D01*
X0501060Y0038150D01*
X0501007Y0038299D01*
X0500951Y0038447D01*
X0500891Y0038593D01*
X0500827Y0038738D01*
X0500759Y0038881D01*
X0500688Y0039023D01*
X0500614Y0039163D01*
X0500536Y0039300D01*
X0500454Y0039436D01*
X0500370Y0039570D01*
X0500281Y0039701D01*
X0500190Y0039830D01*
X0500095Y0039957D01*
X0499998Y0040082D01*
X0499897Y0040204D01*
X0499793Y0040323D01*
X0499686Y0040440D01*
X0499576Y0040554D01*
X0499463Y0040665D01*
X0499348Y0040774D01*
X0499230Y0040879D01*
X0499109Y0040981D01*
X0498986Y0041081D01*
X0498860Y0041177D01*
X0498732Y0041270D01*
X0498602Y0041360D01*
X0498469Y0041446D01*
X0498334Y0041530D01*
X0498198Y0041609D01*
X0498059Y0041686D01*
X0497918Y0041758D01*
X0497776Y0041828D01*
X0497632Y0041893D01*
X0497486Y0041955D01*
X0497339Y0042013D01*
X0497190Y0042068D01*
X0497040Y0042119D01*
X0496889Y0042166D01*
X0496737Y0042209D01*
X0496584Y0042248D01*
X0496429Y0042284D01*
X0496274Y0042315D01*
X0496118Y0042343D01*
X0495962Y0042367D01*
X0495805Y0042387D01*
X0495647Y0042403D01*
X0495490Y0042415D01*
X0495331Y0042423D01*
X0495173Y0042427D01*
X0495015Y0042427D01*
X0494857Y0042423D01*
X0494698Y0042415D01*
X0494541Y0042403D01*
X0494383Y0042387D01*
X0494226Y0042367D01*
X0494070Y0042343D01*
X0493914Y0042315D01*
X0493759Y0042284D01*
X0493604Y0042248D01*
X0493451Y0042209D01*
X0493299Y0042166D01*
X0493148Y0042119D01*
X0492998Y0042068D01*
X0492849Y0042013D01*
X0492702Y0041955D01*
X0492556Y0041893D01*
X0492412Y0041828D01*
X0492270Y0041758D01*
X0492129Y0041686D01*
X0491990Y0041609D01*
X0491854Y0041530D01*
X0491719Y0041446D01*
X0491586Y0041360D01*
X0491456Y0041270D01*
X0491328Y0041177D01*
X0491202Y0041081D01*
X0491079Y0040981D01*
X0490958Y0040879D01*
X0490840Y0040774D01*
X0490725Y0040665D01*
X0490612Y0040554D01*
X0490502Y0040440D01*
X0490395Y0040323D01*
X0490291Y0040204D01*
X0490190Y0040082D01*
X0490093Y0039957D01*
X0489998Y0039830D01*
X0489907Y0039701D01*
X0489818Y0039570D01*
X0489734Y0039436D01*
X0489652Y0039300D01*
X0489574Y0039163D01*
X0489500Y0039023D01*
X0489429Y0038881D01*
X0489361Y0038738D01*
X0489297Y0038593D01*
X0489237Y0038447D01*
X0489181Y0038299D01*
X0489128Y0038150D01*
X0489079Y0037999D01*
X0489034Y0037847D01*
X0488993Y0037694D01*
X0488955Y0037541D01*
X0488922Y0037386D01*
X0488892Y0037230D01*
X0488866Y0037074D01*
X0488845Y0036917D01*
X0488827Y0036760D01*
X0488813Y0036602D01*
X0488803Y0036444D01*
X0488797Y0036286D01*
X0488795Y0036128D01*
X0488795Y0325891D02*
X0488795Y0335891D01*
X0488797Y0336049D01*
X0488803Y0336207D01*
X0488813Y0336365D01*
X0488827Y0336523D01*
X0488845Y0336680D01*
X0488866Y0336837D01*
X0488892Y0336993D01*
X0488922Y0337149D01*
X0488955Y0337304D01*
X0488993Y0337457D01*
X0489034Y0337610D01*
X0489079Y0337762D01*
X0489128Y0337913D01*
X0489181Y0338062D01*
X0489237Y0338210D01*
X0489297Y0338356D01*
X0489361Y0338501D01*
X0489429Y0338644D01*
X0489500Y0338786D01*
X0489574Y0338926D01*
X0489652Y0339063D01*
X0489734Y0339199D01*
X0489818Y0339333D01*
X0489907Y0339464D01*
X0489998Y0339593D01*
X0490093Y0339720D01*
X0490190Y0339845D01*
X0490291Y0339967D01*
X0490395Y0340086D01*
X0490502Y0340203D01*
X0490612Y0340317D01*
X0490725Y0340428D01*
X0490840Y0340537D01*
X0490958Y0340642D01*
X0491079Y0340744D01*
X0491202Y0340844D01*
X0491328Y0340940D01*
X0491456Y0341033D01*
X0491586Y0341123D01*
X0491719Y0341209D01*
X0491854Y0341293D01*
X0491990Y0341372D01*
X0492129Y0341449D01*
X0492270Y0341521D01*
X0492412Y0341591D01*
X0492556Y0341656D01*
X0492702Y0341718D01*
X0492849Y0341776D01*
X0492998Y0341831D01*
X0493148Y0341882D01*
X0493299Y0341929D01*
X0493451Y0341972D01*
X0493604Y0342011D01*
X0493759Y0342047D01*
X0493914Y0342078D01*
X0494070Y0342106D01*
X0494226Y0342130D01*
X0494383Y0342150D01*
X0494541Y0342166D01*
X0494698Y0342178D01*
X0494857Y0342186D01*
X0495015Y0342190D01*
X0495173Y0342190D01*
X0495331Y0342186D01*
X0495490Y0342178D01*
X0495647Y0342166D01*
X0495805Y0342150D01*
X0495962Y0342130D01*
X0496118Y0342106D01*
X0496274Y0342078D01*
X0496429Y0342047D01*
X0496584Y0342011D01*
X0496737Y0341972D01*
X0496889Y0341929D01*
X0497040Y0341882D01*
X0497190Y0341831D01*
X0497339Y0341776D01*
X0497486Y0341718D01*
X0497632Y0341656D01*
X0497776Y0341591D01*
X0497918Y0341521D01*
X0498059Y0341449D01*
X0498198Y0341372D01*
X0498334Y0341293D01*
X0498469Y0341209D01*
X0498602Y0341123D01*
X0498732Y0341033D01*
X0498860Y0340940D01*
X0498986Y0340844D01*
X0499109Y0340744D01*
X0499230Y0340642D01*
X0499348Y0340537D01*
X0499463Y0340428D01*
X0499576Y0340317D01*
X0499686Y0340203D01*
X0499793Y0340086D01*
X0499897Y0339967D01*
X0499998Y0339845D01*
X0500095Y0339720D01*
X0500190Y0339593D01*
X0500281Y0339464D01*
X0500370Y0339333D01*
X0500454Y0339199D01*
X0500536Y0339063D01*
X0500614Y0338926D01*
X0500688Y0338786D01*
X0500759Y0338644D01*
X0500827Y0338501D01*
X0500891Y0338356D01*
X0500951Y0338210D01*
X0501007Y0338062D01*
X0501060Y0337913D01*
X0501109Y0337762D01*
X0501154Y0337610D01*
X0501195Y0337457D01*
X0501233Y0337304D01*
X0501266Y0337149D01*
X0501296Y0336993D01*
X0501322Y0336837D01*
X0501343Y0336680D01*
X0501361Y0336523D01*
X0501375Y0336365D01*
X0501385Y0336207D01*
X0501391Y0336049D01*
X0501393Y0335891D01*
X0501394Y0335891D02*
X0501394Y0325891D01*
X0501393Y0325891D02*
X0501391Y0325733D01*
X0501385Y0325575D01*
X0501375Y0325417D01*
X0501361Y0325259D01*
X0501343Y0325102D01*
X0501322Y0324945D01*
X0501296Y0324789D01*
X0501266Y0324633D01*
X0501233Y0324478D01*
X0501195Y0324325D01*
X0501154Y0324172D01*
X0501109Y0324020D01*
X0501060Y0323869D01*
X0501007Y0323720D01*
X0500951Y0323572D01*
X0500891Y0323426D01*
X0500827Y0323281D01*
X0500759Y0323138D01*
X0500688Y0322996D01*
X0500614Y0322856D01*
X0500536Y0322719D01*
X0500454Y0322583D01*
X0500370Y0322449D01*
X0500281Y0322318D01*
X0500190Y0322189D01*
X0500095Y0322062D01*
X0499998Y0321937D01*
X0499897Y0321815D01*
X0499793Y0321696D01*
X0499686Y0321579D01*
X0499576Y0321465D01*
X0499463Y0321354D01*
X0499348Y0321245D01*
X0499230Y0321140D01*
X0499109Y0321038D01*
X0498986Y0320938D01*
X0498860Y0320842D01*
X0498732Y0320749D01*
X0498602Y0320659D01*
X0498469Y0320573D01*
X0498334Y0320489D01*
X0498198Y0320410D01*
X0498059Y0320333D01*
X0497918Y0320261D01*
X0497776Y0320191D01*
X0497632Y0320126D01*
X0497486Y0320064D01*
X0497339Y0320006D01*
X0497190Y0319951D01*
X0497040Y0319900D01*
X0496889Y0319853D01*
X0496737Y0319810D01*
X0496584Y0319771D01*
X0496429Y0319735D01*
X0496274Y0319704D01*
X0496118Y0319676D01*
X0495962Y0319652D01*
X0495805Y0319632D01*
X0495647Y0319616D01*
X0495490Y0319604D01*
X0495331Y0319596D01*
X0495173Y0319592D01*
X0495015Y0319592D01*
X0494857Y0319596D01*
X0494698Y0319604D01*
X0494541Y0319616D01*
X0494383Y0319632D01*
X0494226Y0319652D01*
X0494070Y0319676D01*
X0493914Y0319704D01*
X0493759Y0319735D01*
X0493604Y0319771D01*
X0493451Y0319810D01*
X0493299Y0319853D01*
X0493148Y0319900D01*
X0492998Y0319951D01*
X0492849Y0320006D01*
X0492702Y0320064D01*
X0492556Y0320126D01*
X0492412Y0320191D01*
X0492270Y0320261D01*
X0492129Y0320333D01*
X0491990Y0320410D01*
X0491854Y0320489D01*
X0491719Y0320573D01*
X0491586Y0320659D01*
X0491456Y0320749D01*
X0491328Y0320842D01*
X0491202Y0320938D01*
X0491079Y0321038D01*
X0490958Y0321140D01*
X0490840Y0321245D01*
X0490725Y0321354D01*
X0490612Y0321465D01*
X0490502Y0321579D01*
X0490395Y0321696D01*
X0490291Y0321815D01*
X0490190Y0321937D01*
X0490093Y0322062D01*
X0489998Y0322189D01*
X0489907Y0322318D01*
X0489818Y0322449D01*
X0489734Y0322583D01*
X0489652Y0322719D01*
X0489574Y0322856D01*
X0489500Y0322996D01*
X0489429Y0323138D01*
X0489361Y0323281D01*
X0489297Y0323426D01*
X0489237Y0323572D01*
X0489181Y0323720D01*
X0489128Y0323869D01*
X0489079Y0324020D01*
X0489034Y0324172D01*
X0488993Y0324325D01*
X0488955Y0324478D01*
X0488922Y0324633D01*
X0488892Y0324789D01*
X0488866Y0324945D01*
X0488845Y0325102D01*
X0488827Y0325259D01*
X0488813Y0325417D01*
X0488803Y0325575D01*
X0488797Y0325733D01*
X0488795Y0325891D01*
D13*
X0493692Y0325954D02*
X0496027Y0325954D01*
X0496494Y0325487D01*
X0496494Y0324552D01*
X0496027Y0324085D01*
X0493692Y0324085D01*
X0494159Y0323191D02*
X0493692Y0322724D01*
X0493692Y0321790D01*
X0494159Y0321323D01*
X0496027Y0321323D01*
X0496494Y0321790D01*
X0496494Y0322724D01*
X0496027Y0323191D01*
X0493692Y0326848D02*
X0493692Y0328716D01*
X0493692Y0327782D02*
X0496494Y0327782D01*
X0496027Y0332372D02*
X0496494Y0332840D01*
X0496494Y0333774D01*
X0496027Y0334241D01*
X0494159Y0334241D01*
X0493692Y0333774D01*
X0493692Y0332840D01*
X0494159Y0332372D01*
X0496027Y0332372D01*
X0496027Y0335135D02*
X0496494Y0335602D01*
X0496494Y0336536D01*
X0496027Y0337003D01*
X0493692Y0337003D01*
X0493692Y0337897D02*
X0493692Y0339765D01*
X0493692Y0338831D02*
X0496494Y0338831D01*
X0496027Y0335135D02*
X0493692Y0335135D01*
X0493692Y0040002D02*
X0493692Y0038133D01*
X0493692Y0037239D02*
X0496027Y0037239D01*
X0496494Y0036772D01*
X0496494Y0035838D01*
X0496027Y0035371D01*
X0493692Y0035371D01*
X0494159Y0034477D02*
X0493692Y0034010D01*
X0493692Y0033076D01*
X0494159Y0032609D01*
X0496027Y0032609D01*
X0496494Y0033076D01*
X0496494Y0034010D01*
X0496027Y0034477D01*
X0494159Y0034477D01*
X0493692Y0039068D02*
X0496494Y0039068D01*
X0493692Y0028952D02*
X0493692Y0027084D01*
X0493692Y0026190D02*
X0496027Y0026190D01*
X0496494Y0025723D01*
X0496494Y0024789D01*
X0496027Y0024322D01*
X0493692Y0024322D01*
X0494159Y0023428D02*
X0493692Y0022960D01*
X0493692Y0022026D01*
X0494159Y0021559D01*
X0496027Y0021559D01*
X0496494Y0022026D01*
X0496494Y0022960D01*
X0496027Y0023428D01*
X0496494Y0028018D02*
X0493692Y0028018D01*
X0014211Y0028018D02*
X0011409Y0028018D01*
X0011409Y0027084D02*
X0011409Y0028952D01*
X0011409Y0026190D02*
X0013744Y0026190D01*
X0014211Y0025723D01*
X0014211Y0024789D01*
X0013744Y0024322D01*
X0011409Y0024322D01*
X0011876Y0023428D02*
X0011409Y0022960D01*
X0011409Y0022026D01*
X0011876Y0021559D01*
X0013744Y0021559D01*
X0014211Y0022026D01*
X0014211Y0022960D01*
X0013744Y0023428D01*
X0013744Y0032609D02*
X0014211Y0033076D01*
X0014211Y0034010D01*
X0013744Y0034477D01*
X0011876Y0034477D01*
X0011409Y0034010D01*
X0011409Y0033076D01*
X0011876Y0032609D01*
X0013744Y0032609D01*
X0013744Y0035371D02*
X0014211Y0035838D01*
X0014211Y0036772D01*
X0013744Y0037239D01*
X0011409Y0037239D01*
X0011409Y0038133D02*
X0011409Y0040002D01*
X0011409Y0039068D02*
X0014211Y0039068D01*
X0013744Y0035371D02*
X0011409Y0035371D01*
X0011876Y0321323D02*
X0013744Y0321323D01*
X0014211Y0321790D01*
X0014211Y0322724D01*
X0013744Y0323191D01*
X0013744Y0324085D02*
X0014211Y0324552D01*
X0014211Y0325487D01*
X0013744Y0325954D01*
X0011409Y0325954D01*
X0011409Y0326848D02*
X0011409Y0328716D01*
X0011409Y0327782D02*
X0014211Y0327782D01*
X0013744Y0324085D02*
X0011409Y0324085D01*
X0011876Y0323191D02*
X0011409Y0322724D01*
X0011409Y0321790D01*
X0011876Y0321323D01*
X0011876Y0332372D02*
X0013744Y0332372D01*
X0014211Y0332840D01*
X0014211Y0333774D01*
X0013744Y0334241D01*
X0011876Y0334241D01*
X0011409Y0333774D01*
X0011409Y0332840D01*
X0011876Y0332372D01*
X0011409Y0335135D02*
X0013744Y0335135D01*
X0014211Y0335602D01*
X0014211Y0336536D01*
X0013744Y0337003D01*
X0011409Y0337003D01*
X0011409Y0337897D02*
X0011409Y0339765D01*
X0011409Y0338831D02*
X0014211Y0338831D01*
D14*
X0186980Y0271294D03*
D15*
X0216917Y0306291D03*
X0276917Y0281308D03*
X0336904Y0311286D03*
X0351911Y0268779D03*
X0336907Y0226280D03*
X0351920Y0183795D03*
X0336917Y0143782D03*
X0351912Y0101301D03*
X0336928Y0051283D03*
X0416947Y0138802D03*
X0416883Y0221288D03*
X0416888Y0306305D03*
X0216894Y0201293D03*
X0096937Y0161260D03*
X0216892Y0096293D03*
X0096936Y0051287D03*
X0096973Y0266302D03*
D16*
X0416827Y0051175D03*
M02*
